<svg width="20" height="20" viewBox="0 0 20 20" fill="none" xmlns="http://www.w3.org/2000/svg">
<path fill-rule="evenodd" clip-rule="evenodd" d="M17.7275 10.0007C17.7275 14.2683 14.2678 17.728 10.0002 17.728C5.73256 17.728 2.27295 14.2683 2.27295 10.0007C2.27295 5.73305 5.73256 2.27344 10.0002 2.27344C14.2678 2.27344 17.7275 5.73305 17.7275 10.0007ZM13.1145 7.65909C13.3409 7.88542 13.3409 8.25237 13.1145 8.47867L9.25091 12.3423C9.02458 12.5686 8.65769 12.5686 8.43133 12.3423L6.88588 10.7969C6.65955 10.5705 6.65955 10.2036 6.88588 9.9773C7.1122 9.75096 7.47915 9.75096 7.70548 9.9773L8.84113 11.1129L10.568 9.38601L12.295 7.65909C12.5213 7.43277 12.8882 7.43277 13.1145 7.65909Z" fill="#3D503E"/>
</svg>
