<svg width="36" height="36" viewBox="0 0 36 36" fill="none" xmlns="http://www.w3.org/2000/svg">
<path fill-rule="evenodd" clip-rule="evenodd" d="M1.7998 3.59687C1.7998 2.60276 2.60569 1.79688 3.5998 1.79688H32.3998C33.3939 1.79688 34.1998 2.60276 34.1998 3.59687V32.3969C34.1998 33.391 33.3939 34.1969 32.3998 34.1969H3.5998C2.60569 34.1969 1.7998 33.391 1.7998 32.3969V3.59687ZM6.2998 11.6969C6.2998 8.71453 8.71747 6.29688 11.6998 6.29688H24.2998C27.2821 6.29688 29.6998 8.71454 29.6998 11.6969V24.2969C29.6998 27.2792 27.2821 29.6969 24.2998 29.6969H11.6998C8.71746 29.6969 6.2998 27.2792 6.2998 24.2969V11.6969ZM12.1498 8.54688C10.1616 8.54688 8.5498 10.1586 8.5498 12.1469V23.8469C8.5498 25.8351 10.1616 27.4469 12.1498 27.4469H23.8498C25.838 27.4469 27.4498 25.8351 27.4498 23.8469V12.1469C27.4498 10.1586 25.838 8.54688 23.8498 8.54688H12.1498ZM17.9998 23.8484C21.2306 23.8484 23.8498 21.2293 23.8498 17.9984C23.8498 14.7676 21.2306 12.1484 17.9998 12.1484C14.7689 12.1484 12.1498 14.7676 12.1498 17.9984C12.1498 21.2293 14.7689 23.8484 17.9998 23.8484ZM17.9998 21.1484C19.7395 21.1484 21.1498 19.7381 21.1498 17.9984C21.1498 16.2587 19.7395 14.8484 17.9998 14.8484C16.2601 14.8484 14.8498 16.2587 14.8498 17.9984C14.8498 19.7381 16.2601 21.1484 17.9998 21.1484ZM24.2998 13.0469C25.0454 13.0469 25.6498 12.4425 25.6498 11.6969C25.6498 10.9513 25.0454 10.3469 24.2998 10.3469C23.5542 10.3469 22.9498 10.9513 22.9498 11.6969C22.9498 12.4425 23.5542 13.0469 24.2998 13.0469Z" fill="white"/>
</svg>
