<svg width="36" height="36" viewBox="0 0 36 36" fill="none" xmlns="http://www.w3.org/2000/svg">
<path fill-rule="evenodd" clip-rule="evenodd" d="M1.80029 3.59687C1.80029 2.60276 2.60618 1.79688 3.60029 1.79688H32.4003C33.3944 1.79688 34.2003 2.60276 34.2003 3.59687V32.3969C34.2003 33.391 33.3944 34.1969 32.4003 34.1969H3.60029C2.60618 34.1969 1.80029 33.391 1.80029 32.3969V3.59687ZM7.87529 13.9469H12.3753V28.3469H7.87529V13.9469ZM19.3503 13.9469H14.8503V28.3469H19.3503V19.5734C20.9253 16.8719 24.0753 17.9979 24.5253 19.5734V28.3484H28.8003V17.9979C27.0003 12.1477 20.4753 13.7219 19.3503 16.1979V13.9469ZM10.1253 12.1469C11.4922 12.1469 12.6003 11.0388 12.6003 9.67188C12.6003 8.30497 11.4922 7.19688 10.1253 7.19688C8.75839 7.19688 7.65029 8.30497 7.65029 9.67188C7.65029 11.0388 8.75839 12.1469 10.1253 12.1469Z" fill="white"/>
</svg>
