<svg width="150" height="39" viewBox="0 0 150 39" fill="none" xmlns="http://www.w3.org/2000/svg">
<g id="onity_">
<path d="M7.68793 9.03125C3.45957 9.03125 0 12.4657 0 16.6633V23.7865C0 27.9842 3.45957 31.4186 7.68793 31.4186H9.22551C13.4539 31.4186 16.9134 27.9842 16.9134 23.7865V16.6633C16.9134 12.4657 13.4539 9.03125 9.22551 9.03125H7.68793ZM7.68793 12.0841H9.22551C11.7882 12.0841 13.8383 14.1193 13.8383 16.6633V23.7865C13.8383 26.3306 11.7882 28.3658 9.22551 28.3658H7.68793C5.12529 28.3658 3.07517 26.3306 3.07517 23.7865V16.6633C3.07517 14.1193 5.12529 12.0841 7.68793 12.0841Z" fill="#E6730A"/>
<path d="M34.7131 9.03125H33.9443C31.8515 9.03125 29.9722 9.87926 28.5628 11.2361V9.41286H25.4876V31.037H28.5628V16.6633C28.5628 14.1617 30.6129 12.0841 33.1755 12.0841H34.7131C37.2758 12.0841 39.3259 14.1617 39.3259 16.6633V31.037H42.4011V16.6633C42.4011 12.4657 38.9415 9.03125 34.7131 9.03125Z" fill="#E6730A"/>
<path d="M58.535 2.92032H61.6102V0H58.535V2.92032ZM52.3847 9.41286V12.4657H58.535V27.9842H50.9752V31.037H68.6575V27.9842H61.6102V9.41286H52.3847Z" fill="#E6730A"/>
<path d="M74.4554 12.4657H80.3495V23.8289C80.3495 27.9842 83.8091 31.4186 87.9947 31.4186C91.5824 31.4186 94.5295 28.9594 95.3837 25.737L92.4366 24.8466C91.9668 26.8394 90.173 28.3658 87.9947 28.3658C85.4748 28.3658 83.4247 26.3306 83.4247 23.8289V12.4657H93.6753V9.41286H83.4247V3.56162H80.3495V9.41286H74.4554V12.4657Z" fill="#E6730A"/>
<path d="M100.712 9.41286L108.955 28.281L106.307 34.429C106.051 34.9802 105.709 35.3618 104.855 35.3618H101.395V38.4146H104.855C106.99 38.4146 108.4 37.2698 109.126 35.6162L120.53 9.41286H117.155L110.578 24.5074L104.086 9.41286H100.712Z" fill="#E6730A"/>
<path d="M127.182 36.5066H150V33.4538H127.182V36.5066Z" fill="#E6730A"/>
</g>
</svg>
