<svg width="79" height="22" viewBox="0 0 79 22" fill="none" xmlns="http://www.w3.org/2000/svg">
<path d="M4.04897 5.63927C1.82204 5.63927 0 7.44807 0 9.65882V13.4104C0 15.6211 1.82204 17.4299 4.04897 17.4299H4.85877C7.08571 17.4299 8.90774 15.6211 8.90774 13.4104V9.65882C8.90774 7.44807 7.08571 5.63927 4.85877 5.63927H4.04897ZM4.04897 7.24709H4.85877C6.20843 7.24709 7.28815 8.31897 7.28815 9.65882V13.4104C7.28815 14.7502 6.20843 15.8221 4.85877 15.8221H4.04897C2.69932 15.8221 1.61959 14.7502 1.61959 13.4104V9.65882C1.61959 8.31897 2.69932 7.24709 4.04897 7.24709Z" fill="#E6730A"/>
<path d="M18.2822 5.63927H17.8773C16.7751 5.63927 15.7854 6.08589 15.0431 6.80048V5.84025H13.4235V17.229H15.0431V9.65882C15.0431 8.3413 16.1228 7.24709 17.4725 7.24709H18.2822C19.6319 7.24709 20.7116 8.3413 20.7116 9.65882V17.229H22.3312V9.65882C22.3312 7.44807 20.5092 5.63927 18.2822 5.63927Z" fill="#E6730A"/>
<path d="M30.8284 2.42085H32.448V0.882812H30.8284V2.42085ZM27.5893 5.84025V7.44807H30.8284V15.6211H26.847V17.229H36.1596V15.6211H32.448V5.84025H27.5893Z" fill="#E6730A"/>
<path d="M39.2132 7.44807H42.3174V13.4327C42.3174 15.6211 44.1395 17.4299 46.3439 17.4299C48.2334 17.4299 49.7855 16.1348 50.2354 14.4376L48.6833 13.9687C48.4359 15.0182 47.4911 15.8221 46.3439 15.8221C45.0167 15.8221 43.937 14.7502 43.937 13.4327V7.44807H49.3356V5.84025H43.937V2.7586H42.3174V5.84025H39.2132V7.44807Z" fill="#E6730A"/>
<path d="M53.0416 5.84025L57.383 15.7775L55.9883 19.0154C55.8534 19.3057 55.6734 19.5067 55.2235 19.5067H53.4015V21.1145H55.2235C56.3482 21.1145 57.0905 20.5116 57.4729 19.6407L63.4789 5.84025H61.7019L58.2378 13.79L54.8186 5.84025H53.0416Z" fill="#E6730A"/>
<path d="M66.9824 20.1096H79V18.5018H66.9824V20.1096Z" fill="#E6730A"/>
</svg>
