<svg width="34" height="34" viewBox="0 0 34 34" fill="none" xmlns="http://www.w3.org/2000/svg">
<g id="Group 61">
<path id="Exclude" fill-rule="evenodd" clip-rule="evenodd" d="M2.60029 0.796875C1.60618 0.796875 0.800293 1.60276 0.800293 2.59687V31.3969C0.800293 32.391 1.60618 33.1969 2.60029 33.1969H31.4003C32.3944 33.1969 33.2003 32.391 33.2003 31.3969V2.59687C33.2003 1.60276 32.3944 0.796875 31.4003 0.796875H2.60029ZM6.52645 8.12778C8.20231 10.2009 11.5959 12.9874 16.7911 13.3194C15.9532 8.5436 21.3997 4.80787 25.3799 8.75451C25.9385 8.75458 27.2652 8.33772 28.5221 7.50977C28.4523 8.06308 27.9356 9.37721 26.4273 10.2072C26.4516 10.2071 26.4765 10.2071 26.5023 10.2071C26.9225 10.2076 27.5717 10.2084 29.1506 9.58269C28.6618 10.2743 27.4747 11.6576 26.8463 12.0746C27.2652 20.785 17.8385 31.5747 4.85059 24.7298C6.31696 25.0064 10.0458 24.7713 12.392 22.4473C9.87817 22.4473 7.99283 21.2024 7.36438 19.1274C8.20231 19.3349 9.04024 19.3349 10.0877 18.9199C8.83076 18.7816 6.10748 18.0899 5.68852 14.1476C6.31696 14.5625 6.94541 14.768 8.20231 14.5625C6.73593 13.7301 4.85059 11.4459 6.52645 8.12778Z" fill="white"/>
</g>
</svg>
