<svg width="34" height="34" viewBox="0 0 34 34" fill="none" xmlns="http://www.w3.org/2000/svg">
<g id="Group 61">
<path id="Exclude" fill-rule="evenodd" clip-rule="evenodd" d="M0.799805 2.59687C0.799805 1.60276 1.60569 0.796875 2.5998 0.796875H31.3998C32.3939 0.796875 33.1998 1.60276 33.1998 2.59687V31.3969C33.1998 32.391 32.3939 33.1969 31.3998 33.1969H2.5998C1.60569 33.1969 0.799805 32.391 0.799805 31.3969V2.59687ZM12.5286 9.79687H8.64811C8.47643 9.79687 8.368 9.98141 8.45156 10.1314L10.7432 14.2446C10.7808 14.3122 10.7811 14.3943 10.744 14.4621L6.83195 21.6139C6.74993 21.7638 6.85844 21.9469 7.02934 21.9469H11.1353C11.2157 21.9469 11.2899 21.904 11.3301 21.8344L15.5804 14.4734C15.6229 14.3997 15.6202 14.3082 15.5734 14.2371L12.7165 9.89814C12.6749 9.83493 12.6042 9.79687 12.5286 9.79687ZM23.1259 5.74687H26.9711C27.1418 5.74687 27.2504 5.92952 27.1688 6.07945L19.8469 19.5297C19.8084 19.6004 19.8106 19.6862 19.8527 19.7548L24.8474 27.9043C24.9393 28.0542 24.8314 28.2469 24.6556 28.2469H20.3721C20.2923 28.2469 20.2184 28.2046 20.178 28.1357L15.2651 19.7552C15.2246 19.6863 15.2238 19.6011 15.2629 19.5314L22.9297 5.86181C22.9695 5.79083 23.0445 5.74687 23.1259 5.74687Z" fill="white"/>
</g>
</svg>
