<svg width="63" height="63" viewBox="0 0 63 63" fill="none" xmlns="http://www.w3.org/2000/svg">
<rect width="63" height="63" rx="31.5" fill="#E6730A"/>
<path d="M31.1405 16.7047C33.0379 16.7047 34.7129 17.016 36.1656 17.6386C37.648 18.2315 38.8042 19.0913 39.6344 20.2179C40.4645 21.3445 40.8795 22.6934 40.8795 24.2647C40.8795 25.9842 40.4941 27.4369 39.7233 28.6228C38.9821 29.7791 37.9741 30.6685 36.6993 31.2911C35.4541 31.9136 34.0607 32.3139 32.5191 32.4918V37.2501H28.828V30.5795C30.8144 30.2831 32.4153 29.8976 33.6308 29.4233C34.8464 28.9193 35.7358 28.2967 36.2991 27.5555C36.8624 26.7847 37.144 25.836 37.144 24.7094C37.144 23.316 36.6252 22.1894 35.5875 21.3296C34.5499 20.4699 32.9786 20.04 30.8736 20.04C28.9169 20.04 27.316 20.5885 26.0708 21.6854C24.8553 22.7527 24.1289 24.2202 23.8918 26.088L20.7344 24.2647C21.0605 22.7527 21.6831 21.4334 22.6021 20.3068C23.5508 19.1506 24.7367 18.2612 26.1598 17.6386C27.6125 17.016 29.2727 16.7047 31.1405 16.7047ZM30.6068 41.1635C31.4666 41.1635 32.1633 41.4304 32.6969 41.964C33.2306 42.4976 33.4974 43.1944 33.4974 44.0541C33.4974 44.9139 33.2306 45.6106 32.6969 46.1442C32.1633 46.6779 31.4666 46.9447 30.6068 46.9447C29.7471 46.9447 29.0504 46.6779 28.5167 46.1442C27.9831 45.6106 27.7162 44.9139 27.7162 44.0541C27.7162 43.1944 27.9831 42.4976 28.5167 41.964C29.0504 41.4304 29.7471 41.1635 30.6068 41.1635Z" fill="white"/>
</svg>
