<svg width="44" height="44" viewBox="0 0 44 44" fill="none" xmlns="http://www.w3.org/2000/svg">
<g id="Component 105">
<path id="Vector" fill-rule="evenodd" clip-rule="evenodd" d="M39 22C39 31.3888 31.3888 39 22 39C12.6112 39 5 31.3888 5 22C5 12.6112 12.6112 5 22 5C31.3888 5 39 12.6112 39 22ZM28.8515 16.8484C29.3494 17.3464 29.3494 18.1536 28.8515 18.6515L20.3515 27.1515C19.8536 27.6494 19.0464 27.6494 18.5484 27.1515L15.1484 23.7515C14.6505 23.2536 14.6505 22.4464 15.1484 21.9485C15.6464 21.4506 16.4536 21.4506 16.9516 21.9485L19.45 24.4468L23.2492 20.6477L27.0485 16.8484C27.5464 16.3505 28.3536 16.3505 28.8515 16.8484Z" fill="#3D503E"/>
</g>
</svg>
