<svg width="60" height="60" viewBox="0 0 60 60" fill="none" xmlns="http://www.w3.org/2000/svg">
<path fill-rule="evenodd" clip-rule="evenodd" d="M3 6C3 4.34315 4.34315 3 6 3H54C55.6569 3 57 4.34315 57 6V54C57 55.6569 55.6569 57 54 57H6C4.34315 57 3 55.6569 3 54V6ZM10.5 19.5C10.5 14.5294 14.5294 10.5 19.5 10.5H40.5C45.4706 10.5 49.5 14.5294 49.5 19.5V40.5C49.5 45.4706 45.4706 49.5 40.5 49.5H19.5C14.5294 49.5 10.5 45.4706 10.5 40.5V19.5ZM20.25 14.25C16.9363 14.25 14.25 16.9363 14.25 20.25V39.75C14.25 43.0637 16.9363 45.75 20.25 45.75H39.75C43.0637 45.75 45.75 43.0637 45.75 39.75V20.25C45.75 16.9363 43.0637 14.25 39.75 14.25H20.25ZM30 39.75C35.3848 39.75 39.75 35.3848 39.75 30C39.75 24.6152 35.3848 20.25 30 20.25C24.6152 20.25 20.25 24.6152 20.25 30C20.25 35.3848 24.6152 39.75 30 39.75ZM30 35.25C32.8995 35.25 35.25 32.8995 35.25 30C35.25 27.1005 32.8995 24.75 30 24.75C27.1005 24.75 24.75 27.1005 24.75 30C24.75 32.8995 27.1005 35.25 30 35.25ZM40.5 21.75C41.7426 21.75 42.75 20.7426 42.75 19.5C42.75 18.2574 41.7426 17.25 40.5 17.25C39.2574 17.25 38.25 18.2574 38.25 19.5C38.25 20.7426 39.2574 21.75 40.5 21.75Z" fill="white"/>
</svg>
