<svg width="60" height="60" viewBox="0 0 60 60" fill="none" xmlns="http://www.w3.org/2000/svg">
<path fill-rule="evenodd" clip-rule="evenodd" d="M3 6C3 4.34315 4.34315 3 6 3H54C55.6569 3 57 4.34315 57 6V54C57 55.6569 55.6569 57 54 57H6C4.34315 57 3 55.6569 3 54V6ZM13.125 47.25V23.25H20.625V47.25H13.125ZM32.25 23.25H24.75V47.25H32.25V32.6275C34.875 28.125 40.125 30.0017 40.875 32.6275V47.2525H48V30.0017C45 20.2513 34.125 22.875 32.25 27.0017V23.25ZM16.875 20.25C19.1532 20.25 21 18.4032 21 16.125C21 13.8468 19.1532 12 16.875 12C14.5968 12 12.75 13.8468 12.75 16.125C12.75 18.4032 14.5968 20.25 16.875 20.25Z" fill="white"/>
</svg>
