<svg width="60" height="60" viewBox="0 0 60 60" fill="none" xmlns="http://www.w3.org/2000/svg">
<path fill-rule="evenodd" clip-rule="evenodd" d="M6 3C4.34315 3 3 4.34315 3 6V54C3 55.6569 4.34315 57 6 57H54C55.6569 57 57 55.6569 57 54V6C57 4.34315 55.6569 3 54 3H6ZM31.0016 23.3694L21.3201 10.5H8.25L24.7086 31.8988L8.97611 49.4699H15.3296L27.129 35.9073L37.7787 49.5H51L33.8758 26.9258L48.5191 10.5H42.4379L31.0016 23.3694ZM19.8987 14.1152H15.6328L39.8971 46.0325H43.6185L19.8987 14.1152Z" fill="white"/>
</svg>
