<svg width="60" height="60" viewBox="0 0 60 60" fill="none" xmlns="http://www.w3.org/2000/svg">
<path fill-rule="evenodd" clip-rule="evenodd" d="M3 6C3 4.34315 4.34315 3 6 3H54C55.6569 3 57 4.34315 57 6V54C57 55.6569 55.6569 57 54 57H6C4.34315 57 3 55.6569 3 54V6ZM22.5479 18H16.0805C15.7944 18 15.6137 18.3076 15.7529 18.5575L19.5723 25.4129C19.635 25.5255 19.6356 25.6623 19.5737 25.7754L13.0536 37.695C12.9169 37.9449 13.0977 38.25 13.3826 38.25H20.2258C20.3598 38.25 20.4836 38.1785 20.5506 38.0625L27.6343 25.7942C27.7052 25.6713 27.7007 25.5189 27.6227 25.4004L22.8611 18.1688C22.7918 18.0634 22.6741 18 22.5479 18ZM40.2102 11.25H46.6189C46.9034 11.25 47.0843 11.5544 46.9483 11.8043L34.7452 34.2214C34.681 34.3392 34.6847 34.4822 34.7548 34.5966L43.0793 48.179C43.2325 48.4289 43.0527 48.75 42.7596 48.75H35.6205C35.4874 48.75 35.3643 48.6795 35.297 48.5647L27.1088 34.5973C27.0414 34.4824 27.04 34.3404 27.1052 34.2242L39.8831 11.4416C39.9495 11.3233 40.0746 11.25 40.2102 11.25Z" fill="white"/>
</svg>
